<?xml version="1.0" encoding="UTF-8" standalone="no"?>
<!-- Created with Inkscape (http://www.inkscape.org/) -->

<svg
   xmlns:dc="http://purl.org/dc/elements/1.1/"
   xmlns:cc="http://creativecommons.org/ns#"
   xmlns:rdf="http://www.w3.org/1999/02/22-rdf-syntax-ns#"
   xmlns:svg="http://www.w3.org/2000/svg"
   xmlns="http://www.w3.org/2000/svg"
   xmlns:sodipodi="http://sodipodi.sourceforge.net/DTD/sodipodi-0.dtd"
   xmlns:inkscape="http://www.inkscape.org/namespaces/inkscape"
   width="320.56198"
   height="92.81456"
   id="svg2"
   version="1.1"
   inkscape:version="0.48.2 r9819"
   sodipodi:docname="Final Fantasy logo with japanese name.svg">
  <defs
     id="defs4" />
  <sodipodi:namedview
     id="base"
     pagecolor="#ffffff"
     bordercolor="#666666"
     borderopacity="1.0"
     inkscape:pageopacity="0.0"
     inkscape:pageshadow="2"
     inkscape:zoom="2.8"
     inkscape:cx="180.9036"
     inkscape:cy="26.120532"
     inkscape:document-units="px"
     inkscape:current-layer="layer1"
     showgrid="false"
     fit-margin-top="0"
     fit-margin-left="0"
     fit-margin-right="0"
     fit-margin-bottom="0"
     inkscape:window-width="1280"
     inkscape:window-height="744"
     inkscape:window-x="-4"
     inkscape:window-y="-4"
     inkscape:window-maximized="1" />
  <metadata
     id="metadata7">
    <rdf:RDF>
      <cc:Work
         rdf:about="">
        <dc:format>image/svg+xml</dc:format>
        <dc:type
           rdf:resource="http://purl.org/dc/dcmitype/StillImage" />
        <dc:title />
      </cc:Work>
    </rdf:RDF>
  </metadata>
  <g
     inkscape:label="Capa 1"
     inkscape:groupmode="layer"
     id="layer1"
     transform="translate(171.70956,-834.52631)">
    <g
       style="font-size:40px;font-style:normal;font-variant:normal;font-weight:normal;font-stretch:normal;line-height:125%;letter-spacing:0px;word-spacing:0px;fill:#000000;fill-opacity:1;stroke:none;font-family:MS Gothic;-inkscape-font-specification:MS Gothic"
       id="text3217"
       transform="matrix(1,0,0,1.007324,0,-6.3475989)">
      <path
         d="m -160.13438,898.74506 -9.41407,0 0,-0.66407 c 0.65104,-0.0781 1.31511,-0.36458 1.99219,-0.85937 l 0,-60.50781 c -0.78125,-0.52077 -1.44531,-0.79421 -1.99219,-0.82032 l 0,-0.66406 15.66407,0 1.67968,19.88281 -0.70312,0 -1.60156,-5.11718 c -0.6771,-2.16141 -1.44533,-4.27078 -2.30469,-6.32813 -0.85939,-2.05723 -1.52996,-3.29421 -2.01172,-3.71094 -0.48178,-0.4166 -1.07423,-0.62494 -1.77734,-0.625 l -1.52344,0 0,25.46875 1.21094,0 c 0.85936,4e-5 1.49087,-0.25387 1.89453,-0.76172 0.40363,-0.50777 0.91795,-1.7773 1.54297,-3.80859 l 1.36718,-4.45312 0.66407,0 0,23.82812 -0.66407,0 -1.875,-6.13281 c -0.67709,-2.23956 -1.15235,-3.56117 -1.42578,-3.96485 -0.27345,-0.40361 -0.77475,-0.60543 -1.5039,-0.60546 l -1.21094,0 0,28.32031 c 0.36457,0.44271 1.02863,0.72917 1.99219,0.85937 z"
         style="font-size:80px;letter-spacing:6.55000019px;fill:#000000;font-family:Runic MT Condensed;-inkscape-font-specification:Runic MT Condensed"
         id="path3017"
         inkscape:connector-curvature="0" />
      <path
         d="m -136.51407,836.71381 0,60.50781 c 0.52082,0.46875 1.18488,0.75521 1.99219,0.85937 l 0,0.66407 -9.33594,0 0,-0.66407 c 0.7552,-0.10416 1.39322,-0.39062 1.91406,-0.85937 l 0,-60.50781 c -0.59896,-0.49473 -1.23698,-0.76817 -1.91406,-0.82032 l 0,-0.66406 9.33594,0 0,0.66406 c -0.78126,0.0521 -1.44533,0.32559 -1.99219,0.82032 z"
         style="font-size:80px;letter-spacing:6.55000019px;fill:#000000;font-family:Runic MT Condensed;-inkscape-font-specification:Runic MT Condensed"
         id="path3019"
         inkscape:connector-curvature="0" />
      <path
         d="m -109.88595,883.62787 -1.67969,-46.91406 c -0.65105,-0.52077 -1.30209,-0.79421 -1.95312,-0.82032 l 0,-0.66406 8.51562,0 0,0.66406 c -0.9896,0.0782 -1.66668,0.35163 -2.03125,0.82032 l 0,62.03125 -4.0625,0 -5.66406,-27.77344 c -1.04167,-5.10414 -1.82292,-9.6484 -2.34375,-13.63281 l -2.46094,-18.98438 2.07032,58.86719 c 0.65103,0.54687 1.31509,0.83333 1.99218,0.85937 l 0,0.66407 -8.47656,0 0,-0.66407 c 0.67708,-0.026 1.34115,-0.3125 1.99219,-0.85937 l 0,-60.50781 c -0.625,-0.52077 -1.28906,-0.79421 -1.99219,-0.82032 l 0,-0.66406 7.1875,0 4.375,20.54688 c 0.80728,3.80212 1.56249,8.02086 2.26563,12.65625 z"
         style="font-size:80px;letter-spacing:6.55000019px;fill:#000000;font-family:Runic MT Condensed;-inkscape-font-specification:Runic MT Condensed"
         id="path3021"
         inkscape:connector-curvature="0" />
      <path
         d="m -85.328133,834.76068 4.726563,62.46094 c 0.364566,0.52083 0.859357,0.80729 1.484375,0.85937 l 0,0.66407 -8.242188,0 0,-0.66407 c 0.703115,-0.18229 1.119781,-0.46875 1.25,-0.85937 l -0.46875,-12.77344 -4.140625,0 -0.664062,12.77344 c 0.468743,0.46875 0.89843,0.75521 1.289062,0.85937 l 0,0.66407 -6.71875,0 0,-0.66407 c 0.546874,-0.10416 0.95052,-0.39062 1.210938,-0.85937 l 4.804687,-62.46094 z m -1.484375,45.58594 -1.914062,-41.5625 -1.992188,41.5625 z"
         style="font-size:80px;letter-spacing:6.55000019px;fill:#000000;font-family:Runic MT Condensed;-inkscape-font-specification:Runic MT Condensed"
         id="path3023"
         inkscape:connector-curvature="0" />
      <path
         d="m -61.668762,835.22943 0,0.66406 c -0.703135,0.0261 -1.341155,0.29955 -1.914063,0.82032 l 0,57.92968 1.757813,0 c 2.213529,10e-6 4.348944,-4.11457 6.40625,-12.34375 l 1.09375,-4.49218 0.507812,0 -1.132812,20.9375 -16.054688,0 0,-0.66407 c 0.833332,-0.1302 1.497394,-0.41666 1.992188,-0.85937 l 0,-60.50781 c -0.625003,-0.52077 -1.289064,-0.79421 -1.992188,-0.82032 l 0,-0.66406 z"
         style="font-size:80px;letter-spacing:6.55000019px;fill:#000000;font-family:Runic MT Condensed;-inkscape-font-specification:Runic MT Condensed"
         id="path3025"
         inkscape:connector-curvature="0" />
    </g>
    <g
       style="font-size:40px;font-style:normal;font-variant:normal;font-weight:normal;font-stretch:normal;line-height:125%;letter-spacing:0px;word-spacing:0px;fill:#000000;fill-opacity:1;stroke:none;font-family:MS Gothic;-inkscape-font-specification:MS Gothic"
       id="text3221">
      <path
         d="m -21.134398,898.51068 -9.414062,0 0,-0.66406 c 0.65104,-0.0781 1.315102,-0.36458 1.992187,-0.85938 l 0,-60.50781 c -0.781252,-0.52077 -1.445314,-0.79421 -1.992187,-0.82031 l 0,-0.66406 15.664062,0 1.679688,19.88281 -0.703125,0 -1.601563,-5.11719 c -0.677098,-2.16141 -1.445327,-4.27078 -2.304687,-6.32812 -0.859388,-2.05724 -1.52996,-3.29422 -2.011719,-3.71094 -0.481782,-0.41661 -1.074229,-0.62494 -1.777344,-0.625 l -1.523437,0 0,25.46875 1.210937,0 c 0.859365,3e-5 1.490875,-0.25387 1.894532,-0.76172 0.403634,-0.50778 0.917956,-1.77731 1.542968,-3.80859 l 1.367188,-4.45313 0.664062,0 0,23.82813 -0.664062,0 -1.875,-6.13282 c -0.677095,-2.23955 -1.152355,-3.56117 -1.425781,-3.96484 -0.273449,-0.40362 -0.77475,-0.60544 -1.503907,-0.60547 l -1.210937,0 0,28.32031 c 0.364575,0.44271 1.028636,0.72917 1.992187,0.85938 z"
         style="font-size:80px;letter-spacing:5.35000134px;fill:#000000;font-family:Runic MT Condensed;-inkscape-font-specification:Runic MT Condensed"
         id="path3028" />
      <path
         d="m 4.9968548,834.52631 4.7265625,62.46093 c 0.3645657,0.52084 0.8593577,0.8073 1.4843747,0.85938 l 0,0.66406 -8.2421872,0 0,-0.66406 c 0.7031142,-0.18229 1.1197805,-0.46875 1.25,-0.85938 l -0.46875,-12.77343 -4.14062502,0 -0.66406248,12.77343 c 0.46874346,0.46875 0.89843053,0.75521 1.28906248,0.85938 l 0,0.66406 -6.71874998,0 0,-0.66406 c 0.5468738,-0.10417 0.9505192,-0.39063 1.2109375,-0.85938 l 4.80468748,-62.46093 z m -1.484375,45.58593 -1.9140625,-41.5625 -1.99218752,41.5625 z"
         style="font-size:80px;letter-spacing:5.35000134px;fill:#000000;font-family:Runic MT Condensed;-inkscape-font-specification:Runic MT Condensed"
         id="path3030" />
      <path
         d="m 34.214045,883.39349 -1.679688,-46.91406 c -0.651056,-0.52077 -1.302097,-0.79421 -1.953125,-0.82031 l 0,-0.66406 8.515625,0 0,0.66406 c -0.989604,0.0782 -1.666687,0.35162 -2.03125,0.82031 l 0,62.03125 -4.0625,0 -5.664062,-27.77344 c -1.041676,-5.10413 -1.822925,-9.6484 -2.34375,-13.63281 l -2.460938,-18.98437 2.070313,58.86718 c 0.651033,0.54688 1.315095,0.83334 1.992187,0.85938 l 0,0.66406 -8.476562,0 0,-0.66406 c 0.677081,-0.026 1.341143,-0.3125 1.992187,-0.85938 l 0,-60.50781 c -0.625002,-0.52077 -1.289064,-0.79421 -1.992187,-0.82031 l 0,-0.66406 7.1875,0 4.375,20.54687 c 0.807278,3.80212 1.562485,8.02087 2.265625,12.65625 z"
         style="font-size:80px;letter-spacing:5.35000134px;fill:#000000;font-family:Runic MT Condensed;-inkscape-font-specification:Runic MT Condensed"
         id="path3032" />
      <path
         d="m 54.017168,896.98724 0,-58.32031 -1.09375,0 c -0.390632,6e-5 -0.722663,0.11074 -0.996094,0.33203 -0.273443,0.22142 -0.677089,0.97011 -1.210937,2.2461 -0.533859,1.27609 -1.126306,3.19666 -1.777344,5.76171 -0.651044,2.56516 -1.276044,5.35812 -1.875,8.37891 l -0.664062,0 1.054687,-20.39062 18.515625,0 1.210938,20.39062 -0.664063,0 c -1.796894,-7.76036 -3.079445,-12.48692 -3.847656,-14.17969 -0.768246,-1.69265 -1.569026,-2.539 -2.402344,-2.53906 l -0.859375,0 0,58.32031 c 0.598944,0.46875 1.263006,0.75521 1.992188,0.85938 l 0,0.66406 -9.414063,0 0,-0.66406 c 0.807284,-0.10417 1.484367,-0.39063 2.03125,-0.85938 z"
         style="font-size:80px;letter-spacing:5.35000134px;fill:#000000;font-family:Runic MT Condensed;-inkscape-font-specification:Runic MT Condensed"
         id="path3034" />
      <path
         d="m 85.578112,834.52631 4.726562,62.46093 c 0.364566,0.52084 0.859357,0.8073 1.484375,0.85938 l 0,0.66406 -8.242187,0 0,-0.66406 c 0.703114,-0.18229 1.11978,-0.46875 1.25,-0.85938 l -0.46875,-12.77343 -4.140625,0 -0.664063,12.77343 c 0.468744,0.46875 0.898431,0.75521 1.289063,0.85938 l 0,0.66406 -6.71875,0 0,-0.66406 c 0.546873,-0.10417 0.950519,-0.39063 1.210937,-0.85938 l 4.804688,-62.46093 z m -1.484375,45.58593 -1.914063,-41.5625 -1.992187,41.5625 z"
         style="font-size:80px;letter-spacing:5.35000134px;fill:#000000;font-family:Runic MT Condensed;-inkscape-font-specification:Runic MT Condensed"
         id="path3036" />
      <path
         d="m 99.131227,883.62787 5.820313,-6.79688 0.50781,0.46875 c -0.59896,1.61461 -0.89844,4.362 -0.89844,8.24219 0,4.01043 0.14323,6.56251 0.42969,7.65625 0.28645,1.09376 0.93749,1.64063 1.95313,1.64063 1.95311,0 2.92967,-3.02083 2.92968,-9.0625 -1e-5,-3.41145 -0.29298,-6.28905 -0.8789,-8.63282 -0.58595,-2.34372 -1.72527,-5.01299 -3.41797,-8.00781 -1.84896,-3.30726 -3.10547,-5.71611 -3.76953,-7.22656 -0.66407,-1.51038 -1.27605,-3.53512 -1.835939,-6.07422 -0.559897,-2.53902 -0.839845,-5.13667 -0.839844,-7.79297 -10e-7,-9.01036 2.617183,-13.51556 7.851563,-13.51562 5.31249,6e-5 7.96873,5.01308 7.96875,15.03906 l 0,2.53906 -5.89844,4.57031 -0.39062,-0.46875 c 0.59894,-2.0312 0.89842,-4.25776 0.89843,-6.67968 -1e-5,-3.51558 -0.13022,-6.19135 -0.39062,-8.02735 -0.26043,-1.83588 -0.93751,-2.75384 -2.03125,-2.7539 -1.71876,6e-5 -2.57813,2.66932 -2.57813,8.00781 0,4.71359 0.3125,8.09249 0.9375,10.13672 0.625,2.04431 1.92708,4.77217 3.90625,8.18359 2.55207,4.40107 4.17317,7.95576 4.86329,10.66406 0.69008,2.70836 1.03513,5.74221 1.03515,9.10157 -2e-5,9.42708 -2.79949,14.14062 -8.39844,14.14062 -5.18229,0 -7.773434,-4.17968 -7.773433,-12.53906 z"
         style="font-size:80px;letter-spacing:5.35000134px;fill:#000000;font-family:Runic MT Condensed;-inkscape-font-specification:Runic MT Condensed"
         id="path3038" />
      <path
         d="m 134.98905,868.51068 0,28.47656 c 0.59894,0.46875 1.27602,0.75521 2.03125,0.85938 l 0,0.66406 -9.375,0 0,-0.66406 c 1.01561,-0.15625 1.65363,-0.44271 1.91406,-0.85938 l 0,-28.16406 -5.42969,-32.34375 c -0.0781,-0.44264 -0.74219,-0.71608 -1.99219,-0.82031 l 0,-0.66406 9.33594,0 0,0.66406 c -0.96355,0.0521 -1.60157,0.32558 -1.91406,0.82031 l 3.47656,28.90625 2.69531,-28.90625 c -0.72918,-0.49473 -1.39324,-0.76817 -1.99218,-0.82031 l 0,-0.66406 8.39843,0 0,0.66406 c -0.96356,0.0521 -1.64064,0.32558 -2.03125,0.82031 z"
         style="font-size:80px;letter-spacing:5.35000134px;fill:#000000;font-family:Runic MT Condensed;-inkscape-font-specification:Runic MT Condensed"
         id="path3040" />
    </g>
    <path
       style="fill:#000000;fill-opacity:1;fill-rule:nonzero;stroke:none"
       d="m -171.70956,904.84143 320.56198,0 0,2.475 -320.56198,0 z"
       id="rect3225" />
    <g
       style="font-size:40px;font-style:normal;font-variant:normal;font-weight:normal;font-stretch:normal;line-height:125%;letter-spacing:0px;word-spacing:0px;fill:#000000;fill-opacity:1;stroke:none;font-family:MS Gothic;-inkscape-font-specification:MS Gothic"
       id="text3227">
      <path
         d="m 143.88684,893.0849 c 0.49479,1e-5 0.97786,0.12696 1.44922,0.38086 0.47135,0.25391 0.83854,0.61719 1.10156,1.08984 0.26302,0.47266 0.39453,0.9655 0.39453,1.47852 0,0.50781 -0.12956,0.99609 -0.38867,1.46484 -0.25912,0.46875 -0.6224,0.83269 -1.08984,1.0918 -0.46745,0.25911 -0.95639,0.38867 -1.4668,0.38867 -0.51042,0 -0.99935,-0.12956 -1.4668,-0.38867 -0.46744,-0.25911 -0.83138,-0.62305 -1.09179,-1.0918 -0.26042,-0.46875 -0.39063,-0.95703 -0.39063,-1.46484 0,-0.51302 0.13216,-1.00586 0.39649,-1.47852 0.26432,-0.47265 0.63216,-0.83593 1.10351,-1.08984 0.47135,-0.2539 0.95443,-0.38085 1.44922,-0.38086 z m 0,0.48828 c -0.41406,10e-6 -0.81706,0.10613 -1.20898,0.31836 -0.39193,0.21224 -0.69857,0.51563 -0.91993,0.91016 -0.22135,0.39453 -0.33203,0.80534 -0.33203,1.23242 0,0.42448 0.10873,0.83138 0.32618,1.2207 0.21744,0.38933 0.52148,0.69271 0.9121,0.91016 0.39063,0.21745 0.79818,0.32617 1.22266,0.32617 0.42448,0 0.83203,-0.10872 1.22266,-0.32617 0.39062,-0.21745 0.694,-0.52083 0.91015,-0.91016 0.21614,-0.38932 0.32422,-0.79622 0.32422,-1.2207 0,-0.42708 -0.11003,-0.83789 -0.33008,-1.23242 -0.22005,-0.39453 -0.52669,-0.69792 -0.91992,-0.91016 -0.39323,-0.21223 -0.79557,-0.31835 -1.20703,-0.31836 z m 0.94531,2.9375 0.48047,0.14063 c -0.0781,0.32552 -0.24414,0.58528 -0.49804,0.77929 -0.25391,0.19401 -0.56186,0.29102 -0.92383,0.29102 -0.45834,0 -0.83073,-0.14844 -1.11719,-0.44531 -0.28646,-0.29688 -0.42969,-0.70833 -0.42969,-1.23438 0,-0.34375 0.0651,-0.64257 0.19531,-0.89648 0.13021,-0.25391 0.31576,-0.44531 0.55665,-0.57422 0.24088,-0.1289 0.51627,-0.19336 0.82617,-0.19336 0.34635,0 0.63411,0.0827 0.86328,0.24805 0.22916,0.16536 0.38541,0.38997 0.46875,0.67382 l -0.46485,0.11328 c -0.0781,-0.1927 -0.19336,-0.34049 -0.3457,-0.44335 -0.15235,-0.10287 -0.33138,-0.1543 -0.53711,-0.1543 -0.29948,0 -0.54622,0.10677 -0.74023,0.32031 -0.19401,0.21355 -0.29102,0.51954 -0.29102,0.91797 0,0.39844 0.0918,0.69987 0.27539,0.9043 0.18359,0.20443 0.42122,0.30664 0.71289,0.30664 0.23438,0 0.4401,-0.0677 0.61719,-0.20313 0.17708,-0.13541 0.29427,-0.31901 0.35156,-0.55078 z"
         style="font-size:8px;fill:#000000;font-family:Arial;-inkscape-font-specification:Arial"
         id="path3044" />
    </g>
    <g
       transform="scale(0.92696404,1.0787905)"
       style="font-size:31.10623932px;font-style:normal;font-variant:normal;font-weight:normal;font-stretch:normal;line-height:125%;letter-spacing:0px;word-spacing:0px;fill:#000000;fill-opacity:1;stroke:none;font-family:MS Gothic;-inkscape-font-specification:MS Gothic"
       id="text3231">
      <path
         d="m 31.885639,848.45685 c -0.860688,0.082 -2.914885,0.34636 -6.162597,0.79297 -0.802089,0.12012 -1.263351,0.2404 -1.38379,0.36084 -0.05697,0.17188 -0.188968,0.25782 -0.395996,0.25781 -0.170251,10e-6 -0.442711,-0.18391 -0.817382,-0.55176 -0.422529,-0.33886 -0.656741,-0.69074 -0.702637,-1.05566 -2e-6,-0.32161 0.185056,-0.37955 0.555176,-0.17383 0.13932,0.24382 0.440589,0.36573 0.903808,0.36572 0.694657,10e-6 3.261224,-0.24429 7.699707,-0.73291 0.266265,-0.0335 0.49657,-0.19774 0.690918,-0.49267 0.519193,0.26693 0.985013,0.56511 1.397461,0.89453 0.248033,0.19792 0.372057,0.3807 0.37207,0.54834 -1.3e-5,0.26758 -0.200209,0.40137 -0.600585,0.40136 -0.212579,10e-6 -0.344252,0.0508 -0.39502,0.15235 -1.690441,4.20573 -4.815112,7.11686 -9.374023,8.7334 -0.342777,0 -0.435225,-0.17383 -0.277344,-0.52149 4.314771,-1.87272 7.15982,-4.81103 8.535156,-8.81494 0.116525,-0.14875 0.101551,-0.20344 -0.04492,-0.16406 z"
         style="letter-spacing:-5.07999945px;fill:#000000;-inkscape-font-specification:MS Mincho Bold"
         id="path3047" />
      <path
         d="m 34.653296,859.09552 c 2.579095,-1.6097 3.789055,-3.6792 3.629882,-6.2085 -0.576178,-0.30533 -0.61166,-0.53629 -0.106445,-0.69287 1.031242,-0.043 1.485668,0.13982 1.363281,0.54834 0.825186,-0.62369 1.584626,-1.28238 2.278321,-1.97607 0.294585,-0.14941 0.312814,-0.20491 0.05469,-0.16651 -3.907884,0.4476 -5.985031,0.77703 -6.231445,0.98829 -0.160486,0.16081 -0.348149,0.24121 -0.562989,0.24121 -0.124678,0 -0.33887,-0.10856 -0.642578,-0.32569 -0.375654,-0.28189 -0.586428,-0.60709 -0.632324,-0.97558 -3e-6,-0.40299 0.163409,-0.50276 0.490235,-0.29932 0.243486,0.24578 0.593908,0.34978 1.051269,0.31201 1.648106,-0.1647 3.899894,-0.38996 6.755371,-0.67578 0.170562,-0.0342 0.405425,-0.1372 0.70459,-0.30908 0.40461,0.27637 0.712227,0.54102 0.922852,0.79394 0.190091,0.23764 0.285143,0.43361 0.285156,0.5879 -1.3e-5,0.18587 -0.189629,0.2583 -0.568848,0.21728 -0.221366,10e-6 -0.464367,0.11345 -0.729004,0.34033 -0.529308,0.40691 -1.591156,1.02898 -3.185547,1.86621 -0.286792,2.90593 -1.83806,4.98926 -4.653808,6.25 -0.347334,0 -0.421553,-0.17204 -0.222656,-0.51611 z"
         style="letter-spacing:-5.07999945px;fill:#000000;-inkscape-font-specification:MS Mincho Bold"
         id="path3049" />
      <path
         d="m 50.981499,851.43048 c -9e-6,2.28614 -9e-6,4.59343 0,6.92188 -9e-6,0.472 -0.139007,0.708 -0.416992,0.708 -0.180998,0 -0.399911,-0.15413 -0.656739,-0.4624 -0.248705,-0.30338 -0.327156,-0.63476 -0.235351,-0.99414 0.112297,-0.41276 0.168449,-0.75553 0.168457,-1.02832 -8e-6,-1.79752 -8e-6,-3.54296 0,-5.23633 -2.237636,1.82488 -4.354984,3.11166 -6.352051,3.86035 -0.463217,10e-6 -0.548829,-0.19628 -0.256836,-0.58886 4.195307,-2.28092 7.309073,-4.72167 9.341309,-7.32227 0.139312,-0.16438 0.190256,-0.32339 0.152832,-0.47705 -0.02605,-0.0775 -0.179861,-0.18667 -0.461426,-0.32764 -0.308604,-0.22199 -0.246429,-0.38231 0.186523,-0.48095 0.72525,0.0453 1.261707,0.30697 1.609375,0.78515 0.35741,0.31251 0.53612,0.57228 0.536133,0.7793 -1.3e-5,0.26759 -0.189628,0.38103 -0.568848,0.34033 -0.143241,1e-5 -0.295259,0.0643 -0.456054,0.19287 -0.740245,0.86362 -1.665049,1.68849 -2.774414,2.47461 0.898753,0.34506 0.960114,0.63022 0.184082,0.85547 z"
         style="letter-spacing:-5.07999945px;fill:#000000;-inkscape-font-specification:MS Mincho Bold"
         id="path3051" />
      <path
         d="m 61.993786,850.4715 c 0.163402,3.88444 -1.34978,6.64518 -4.539551,8.28222 -0.307621,0 -0.407719,-0.14762 -0.300293,-0.44287 2.588861,-1.81868 3.804191,-4.4082 3.645996,-7.76855 -3.041346,0.28028 -4.611494,0.51921 -4.710449,0.71679 -0.117191,0.17579 -0.269371,0.26368 -0.456543,0.26368 -0.175784,0 -0.346519,-0.0828 -0.512207,-0.24854 -0.712892,-0.63378 -1.048015,-1.16715 -1.005371,-1.6001 0.08366,-0.3649 0.279133,-0.40249 0.586426,-0.11279 0.200519,0.36394 0.47005,0.54591 0.808593,0.5459 0.946611,10e-6 2.707189,-0.11702 5.281739,-0.35108 -8e-6,-0.92805 -8e-6,-1.75975 0,-2.49511 -8e-6,-0.36783 -0.311531,-0.62499 -0.934571,-0.77149 -0.234707,-0.21255 -0.226081,-0.37385 0.02588,-0.48388 0.39485,-0.12532 0.860832,-0.0858 1.39795,0.11865 0.801748,0.28321 1.182282,0.58432 1.141601,0.90332 -9e-6,0.21876 -0.103362,0.32813 -0.310059,0.32812 -0.07944,0.0397 -0.119149,0.19191 -0.11914,0.45655 -9e-6,0.61296 -9e-6,1.23503 0,1.86621 2.437163,10e-6 3.804512,-0.20426 4.102051,-0.6128 0.424465,0.0899 0.805975,0.24041 1.144531,0.45167 0.505844,0.27605 0.758774,0.5656 0.758789,0.86865 -1.5e-5,0.22689 -0.250829,0.29916 -0.752441,0.21679 -1.501966,-0.20376 -3.252941,-0.24755 -5.25293,-0.13134 z"
         style="font-size:16px;font-weight:bold;letter-spacing:-3.46000004px;fill:#000000;font-family:MS Mincho;-inkscape-font-specification:MS Mincho Bold"
         id="path3053" />
      <path
         d="m 73.534275,856.62628 c -0.440763,-0.44075 -0.66114,-0.7028 -0.661133,-0.78613 -7e-6,-0.16113 0.163404,-0.28255 0.490235,-0.36426 -8e-6,-0.49251 -8e-6,-2.63199 0,-6.41846 -0.03875,-0.3509 -0.104989,-0.60432 -0.198731,-0.76025 -0.07227,-0.10806 -0.297696,-0.20002 -0.676269,-0.27588 -0.274421,-0.22915 -0.287279,-0.43261 -0.03857,-0.61035 0.837558,1e-5 1.516756,0.15203 2.037598,0.45605 0.296866,0.19793 0.445303,0.38397 0.445313,0.55811 -1e-5,0.2256 -0.163421,0.42009 -0.490235,0.5835 -9e-6,1.98047 -9e-6,4.04216 0,6.18505 2.263335,-1.04068 4.315254,-2.52213 6.155762,-4.44433 0.389958,-0.10123 0.560857,0.0226 0.512695,0.37158 -1.211277,1.58692 -2.871106,3.0625 -4.979492,4.42676 -1.04428,0.58008 -1.566415,0.92269 -1.566406,1.02783 -9e-6,0.30827 -0.118499,0.4624 -0.355469,0.4624 -0.17579,0 -0.400887,-0.1372 -0.675293,-0.41162 z m -2.190918,-6.08398 c -0.763677,3.0166 -2.355309,5.48437 -4.774902,7.40332 -0.372397,0.0485 -0.509929,-0.0885 -0.412598,-0.41114 1.994138,-1.95312 3.273434,-4.30061 3.837891,-7.04248 0.04036,-0.39973 0.0358,-0.62222 -0.01367,-0.66748 -0.09994,-0.10025 -0.258468,-0.16828 -0.475586,-0.2041 -0.287113,-0.18293 -0.286137,-0.36636 0.0029,-0.55029 0.718419,-0.0439 1.344884,0.11882 1.879394,0.48828 0.321283,0.2142 0.481927,0.42888 0.481934,0.64404 -7e-6,0.22657 -0.175137,0.33986 -0.525391,0.33985 z"
         style="font-size:16px;font-weight:bold;letter-spacing:-3.46000004px;fill:#000000;font-family:MS Mincho;-inkscape-font-specification:MS Mincho Bold"
         id="path3055" />
      <path
         d="m 89.881889,848.45685 c -0.860688,0.082 -2.914885,0.34636 -6.162597,0.79297 -0.802088,0.12012 -1.263351,0.2404 -1.383789,0.36084 -0.05697,0.17188 -0.188969,0.25782 -0.395996,0.25781 -0.170252,10e-6 -0.442712,-0.18391 -0.817383,-0.55176 -0.422529,-0.33886 -0.656741,-0.69074 -0.702637,-1.05566 -2e-6,-0.32161 0.185056,-0.37955 0.555176,-0.17383 0.13932,0.24382 0.440589,0.36573 0.903808,0.36572 0.694657,10e-6 3.261224,-0.24429 7.699707,-0.73291 0.266265,-0.0335 0.49657,-0.19774 0.690918,-0.49267 0.519193,0.26693 0.985013,0.56511 1.397461,0.89453 0.248033,0.19792 0.372057,0.3807 0.372071,0.54834 -1.4e-5,0.26758 -0.200209,0.40137 -0.600586,0.40136 -0.212579,10e-6 -0.344252,0.0508 -0.39502,0.15235 -1.690441,4.20573 -4.815112,7.11686 -9.374023,8.7334 -0.342777,0 -0.435225,-0.17383 -0.277344,-0.52149 4.314771,-1.87272 7.15982,-4.81103 8.535156,-8.81494 0.116525,-0.14875 0.101551,-0.20344 -0.04492,-0.16406 z"
         style="font-size:16px;font-weight:bold;letter-spacing:-3.46000004px;fill:#000000;font-family:MS Mincho;-inkscape-font-specification:MS Mincho Bold"
         id="path3057" />
      <path
         d="m 94.26955,859.09552 c 2.579096,-1.6097 3.789055,-3.6792 3.629883,-6.2085 -0.576178,-0.30533 -0.61166,-0.53629 -0.106445,-0.69287 1.031242,-0.043 1.485668,0.13982 1.363281,0.54834 0.825186,-0.62369 1.584621,-1.28238 2.278321,-1.97607 0.29458,-0.14941 0.31281,-0.20491 0.0547,-0.16651 -3.907888,0.4476 -5.985034,0.77703 -6.231448,0.98829 -0.160487,0.16081 -0.348149,0.24121 -0.562989,0.24121 -0.124678,0 -0.338871,-0.10856 -0.642578,-0.32569 -0.375654,-0.28189 -0.586428,-0.60709 -0.632324,-0.97558 -3e-6,-0.40299 0.163408,-0.50276 0.490234,-0.29932 0.243486,0.24578 0.593909,0.34978 1.05127,0.31201 1.648106,-0.1647 3.899894,-0.38996 6.755375,-0.67578 0.17056,-0.0342 0.40542,-0.1372 0.70459,-0.30908 0.40461,0.27637 0.71222,0.54102 0.92285,0.79394 0.19009,0.23764 0.28514,0.43361 0.28515,0.5879 -10e-6,0.18587 -0.18963,0.2583 -0.56884,0.21728 -0.22137,10e-6 -0.46437,0.11345 -0.72901,0.34033 -0.52931,0.40691 -1.59115,1.02898 -3.185545,1.86621 -0.286792,2.90593 -1.83806,4.98926 -4.653808,6.25 -0.347335,0 -0.421553,-0.17204 -0.222657,-0.51611 z"
         style="font-size:16px;font-weight:bold;letter-spacing:-3.46000004px;fill:#000000;font-family:MS Mincho;-inkscape-font-specification:MS Mincho Bold"
         id="path3059" />
      <path
         d="m 106.36863,855.19611 c 0.26887,0.65202 0.58837,0.97803 0.95849,0.97802 0.45573,10e-6 1.75227,-0.68554 3.88965,-2.05664 2.14713,-1.3776 4.30809,-3.11278 6.48291,-5.20556 0.47134,-0.14257 0.63817,0.008 0.50049,0.45117 -2.84474,3.17416 -6.17351,5.81592 -9.98633,7.92529 -0.0322,0.12956 -0.0724,0.24235 -0.1206,0.33838 -0.069,0.13867 -0.20183,0.20801 -0.39844,0.20801 -0.21387,0 -0.50863,-0.22477 -0.88428,-0.67432 -0.75065,-0.59896 -1.08513,-1.18961 -1.00342,-1.77197 0,-0.29329 0.18717,-0.35742 0.56153,-0.19238 z m 2.90771,-5.17774 c -1e-5,0.5127 -0.26156,0.76905 -0.78467,0.76904 -0.3392,10e-6 -0.57731,-0.29589 -0.71435,-0.88769 -0.0804,-0.32161 -0.33676,-0.71825 -0.76905,-1.18994 -0.23958,-0.23958 -0.57324,-0.5148 -1.00097,-0.82569 -0.25586,-0.3561 -0.17042,-0.51235 0.25635,-0.46875 1.10318,0.33953 1.88801,0.76369 2.35449,1.27247 0.43879,0.48308 0.65819,0.9266 0.6582,1.33056 z"
         style="font-size:16px;font-weight:bold;letter-spacing:-3.46000004px;fill:#000000;font-family:MS Mincho;-inkscape-font-specification:MS Mincho Bold"
         id="path3061" />
      <path
         d="m 124.69036,852.98712 c -0.84408,-0.74023 -1.92936,-1.24869 -3.25585,-1.52539 -0.85971,0.94955 -1.86296,1.82781 -3.00977,2.63477 -0.35775,0 -0.46322,-0.16618 -0.31641,-0.49854 2.23405,-1.90917 3.71305,-4.01659 4.43702,-6.32226 0.12271,-0.30826 -0.0682,-0.53043 -0.57276,-0.66651 -0.2308,-0.1774 -0.22575,-0.35757 0.0151,-0.54053 0.51041,-0.0446 0.94205,0.0205 1.29492,0.19532 0.63639,0.31804 0.95458,0.60955 0.95459,0.87451 -1e-5,0.22657 -0.1185,0.33985 -0.35547,0.33984 -0.0492,10e-6 -0.10027,0.0532 -0.15332,0.15967 -0.1224,0.24513 -0.25912,0.45541 -0.41016,0.63086 1.21289,-0.0791 2.45947,-0.17854 3.73975,-0.29834 0.16666,-0.13345 0.35529,-0.31998 0.56592,-0.55957 0.3037,0.098 0.62352,0.27296 0.95947,0.5249 0.28905,0.19272 0.43358,0.37631 0.43359,0.55078 -1e-5,0.20281 -0.11557,0.33318 -0.34667,0.39112 -0.17059,0.0342 -0.32586,0.19125 -0.46583,0.47119 -0.49122,1.06413 -1.13949,2.15251 -1.94482,3.26513 0.49022,0.30502 0.71321,0.67888 0.66895,1.12159 -0.0515,0.36328 -0.20916,0.54492 -0.47315,0.54492 -0.21648,0 -0.5184,-0.22477 -0.90576,-0.67432 -1.81218,2.34766 -3.9891,4.08399 -6.53076,5.20899 -0.38607,0 -0.50196,-0.17155 -0.34766,-0.51465 2.77343,-1.63151 4.77978,-3.40267 6.01904,-5.31348 z m 0.61084,-0.91894 c 0.7041,-1.04101 1.28027,-2.111 1.72852,-3.20996 0.0745,-0.0944 0.0793,-0.14583 0.0142,-0.1543 -1.32488,0.0817 -2.52979,0.16342 -3.61475,0.24512 -0.21094,-0.0508 -0.31185,-0.11197 -0.30273,-0.1836 -0.45671,0.92384 -0.92383,1.63119 -1.40137,2.12207 1.51985,0.22071 2.71191,0.61427 3.57617,1.18067 z"
         style="letter-spacing:-5.26999903px;fill:#000000;-inkscape-font-specification:MS Mincho Bold"
         id="path3063" />
      <path
         d="m 141.4941,846.89337 c -2e-5,0.30828 -0.15936,0.46241 -0.47803,0.4624 -0.21648,10e-6 -0.38022,-0.0555 -0.49121,-0.1665 -0.17384,-0.17382 -0.34327,-0.38443 -0.5083,-0.63184 -0.27117,-0.30988 -0.65024,-0.60675 -1.13721,-0.89062 -0.16082,-0.30793 -0.098,-0.4619 0.18848,-0.46191 0.98957,0.17221 1.65884,0.43279 2.00781,0.78173 0.27896,0.27899 0.41844,0.58123 0.41846,0.90674 z m -2.46729,0.11572 c 0.41926,0.27964 0.6289,0.62908 0.62891,1.04834 -1e-5,0.39031 -0.17986,0.58546 -0.53955,0.58545 -0.22983,10e-6 -0.52996,-0.28824 -0.90039,-0.86474 -0.18523,-0.27766 -0.60288,-0.68082 -1.25293,-1.20948 -0.10874,-0.19465 -0.0462,-0.34276 0.1875,-0.44433 0.62759,0.17449 1.25308,0.46941 1.87646,0.88476 z m -4.94726,1.96778 c -1e-5,0.38998 -0.22071,0.58497 -0.66211,0.58496 -0.22983,10e-6 -0.49138,-0.229 -0.78467,-0.68701 -0.40756,-0.57454 -1.09229,-0.96223 -2.0542,-1.16309 -0.22396,-0.2731 -0.17969,-0.45507 0.13281,-0.5459 1.32259,10e-6 2.28532,0.30145 2.88819,0.9043 0.31998,0.32 0.47997,0.62224 0.47998,0.90674 z m -1.83838,3.18652 c -1e-5,0.16342 -0.0578,0.3029 -0.17334,0.41846 -0.11101,0.11101 -0.25359,0.16651 -0.42774,0.1665 -0.22428,1e-5 -0.50618,-0.23974 -0.8457,-0.71924 -0.44499,-0.51496 -1.10661,-0.89224 -1.98486,-1.13183 -0.31088,-0.26725 -0.29134,-0.44889 0.0586,-0.54492 1.28125,0 2.27913,0.33496 2.99365,1.00488 0.25293,0.25294 0.37939,0.52165 0.3794,0.80615 z m 1.28027,4.87451 c -0.54981,0.37305 -0.86019,0.63054 -0.93115,0.77246 -0.11036,0.22038 -0.26368,0.33057 -0.45996,0.33057 -0.11557,0 -0.36882,-0.10856 -0.75977,-0.32568 -0.30664,-0.17513 -0.56429,-0.36719 -0.77295,-0.57618 -0.35905,-0.3623 -0.51823,-0.85139 -0.47753,-1.46728 -1e-5,-0.30371 0.18912,-0.34863 0.56738,-0.13477 0.18782,0.56218 0.44417,0.84327 0.76904,0.84327 0.33658,0 0.79866,-0.15674 1.38623,-0.47022 3.37011,-2.03027 6.20067,-4.31347 8.4917,-6.84961 0.43325,-0.14485 0.62694,-0.0226 0.58106,0.3667 -2.02834,2.56641 -4.82635,5.06999 -8.39405,7.51074 z"
         style="letter-spacing:-1.49000013px;fill:#000000;-inkscape-font-specification:MS Mincho Bold"
         id="path3065" />
      <path
         d="m 153.89717,852.56476 c -1.79201,-0.041 -3.40203,-0.041 -4.83008,0 -1.14193,0.0407 -2.36654,0.10189 -3.67383,0.18359 -0.68685,0.0384 -1.05778,0.0851 -1.11279,0.14014 -0.19271,0.19271 -0.37614,0.28907 -0.55029,0.28906 -0.0938,10e-6 -0.27784,-0.1372 -0.55225,-0.41162 -0.30144,-0.30143 -0.51644,-0.58089 -0.64502,-0.83838 -0.21517,-0.43684 -0.30127,-0.86246 -0.2583,-1.27685 0.17903,-0.23958 0.36914,-0.2679 0.57031,-0.085 0.19434,0.54493 0.39193,0.86769 0.59277,0.96827 0.22233,0.11101 0.52409,0.16651 0.90528,0.1665 1.30533,10e-6 2.95816,-0.0195 4.95849,-0.0586 2.07812,-0.041 3.38183,-0.0819 3.91114,-0.12256 0.40265,-0.0368 0.63231,-0.0835 0.68896,-0.14014 0.15396,-0.15331 0.3177,-0.22997 0.49121,-0.22998 0.41763,10e-6 0.78482,0.15837 1.10157,0.4751 0.31997,0.31999 0.47996,0.51449 0.47998,0.58349 0.0817,0.36036 -0.11265,0.51938 -0.58301,0.47706 -0.51922,-0.0801 -1.01727,-0.12012 -1.49414,-0.12012 z"
         style="letter-spacing:-1.49000013px;fill:#000000;-inkscape-font-specification:MS Mincho Bold"
         id="path3067" />
    </g>
  </g>
</svg>
